<?xml version="1.0" standalone="no"?><!DOCTYPE svg PUBLIC "-//W3C//DTD SVG 1.1//EN" "http://www.w3.org/Graphics/SVG/1.1/DTD/svg11.dtd"><svg t="1527560269889" class="icon" style="" viewBox="0 0 1024 1024" version="1.1" xmlns="http://www.w3.org/2000/svg" p-id="1330" xmlns:xlink="http://www.w3.org/1999/xlink" width="200" height="200"><defs><style type="text/css"></style></defs><path d="M904.448 275.904l-114.176 0-91.904-92.608L476.096 183.296 383.488 275.904 119.552 275.904C88.896 275.904 64 300.736 64 331.456l0 453.824c0 30.656 24.896 55.488 55.552 55.488l784.896 0c30.656 0 55.552-24.896 55.552-55.488L960 331.456C960 300.736 935.104 275.904 904.448 275.904zM587.84 763.2c-112.832 0-204.288-91.456-204.288-204.288 0-112.832 91.456-204.288 204.288-204.288 112.896 0 204.288 91.52 204.288 204.288C792.128 671.744 700.672 763.2 587.84 763.2z" p-id="1331" fill="#dddddd"></path><path d="M587.264 558.336m-122.688 0a1.917 1.917 0 1 0 245.376 0 1.917 1.917 0 1 0-245.376 0Z" p-id="1332" fill="#dddddd"></path></svg>